<svg width="20" height="22" viewBox="0 0 20 22" fill="none" xmlns="http://www.w3.org/2000/svg">
<path d="M9.80343 5.27391V8.65774" stroke="black" stroke-width="1.5" stroke-miterlimit="10" stroke-linecap="round"/>
<path d="M9.82376 0.762125C6.08426 0.762125 3.05609 3.7903 3.05609 7.52979V9.66374C3.05609 10.3547 2.77156 11.3912 2.4159 11.9806L1.12537 14.1349C0.33276 15.4661 0.881489 16.9497 2.34477 17.4374C7.20205 19.0531 12.4556 19.0531 17.3129 17.4374C18.6847 16.9801 19.2741 15.3746 18.5323 14.1349L17.2418 11.9806C16.8861 11.3912 16.6016 10.3446 16.6016 9.66374V7.52979C16.5914 3.81062 13.5429 0.762125 9.82376 0.762125Z" stroke="black" stroke-width="1.5" stroke-miterlimit="10" stroke-linecap="round"/>
<path d="M13.1873 17.8541C13.1873 19.7136 11.663 21.2379 9.80343 21.2379C8.87871 21.2379 8.02513 20.8517 7.41543 20.242C6.80573 19.6323 6.41959 18.7788 6.41959 17.8541" stroke="black" stroke-width="1.5" stroke-miterlimit="10"/>
</svg>
